Coordinates
version=1
nRows=17
nColumns=40
inDegrees=yes

Units are S.I. units (second, meters, Newtons, ...)
Angles are in degrees.

endheader
time	pelvis_tilt	pelvis_list	pelvis_rotation	pelvis_tx	pelvis_ty	pelvis_tz	hip_flexion_r	hip_adduction_r	hip_rotation_r	knee_angle_r	knee_angle_r_beta	ankle_angle_r	subtalar_angle_r	mtp_angle_r	hip_flexion_l	hip_adduction_l	hip_rotation_l	knee_angle_l	knee_angle_l_beta	ankle_angle_l	subtalar_angle_l	mtp_angle_l	lumbar_extension	lumbar_bending	lumbar_rotation	arm_flex_r	arm_add_r	arm_rot_r	elbow_flex_r	pro_sup_r	wrist_flex_r	wrist_dev_r	arm_flex_l	arm_add_l	arm_rot_l	elbow_flex_l	pro_sup_l	wrist_flex_l	wrist_dev_l
      2.93250000	     -6.30000873	     -4.05032829	    -10.71247639	      0.93692086	      0.92670666	      0.51988896	     19.07667558	      4.36823980	     -8.93244514	     16.57197626	     16.57197626	      5.38165380	      3.80735970	     -5.12460859	      3.67572631	     -9.53764830	    -13.56545608	     31.31216436	     31.31216436	     14.77434350	    -14.91105365	     -1.97235570	     -9.34186589	      8.76220436	      1.25877178	     -8.12006841	    -13.67052736	    -19.47364267	     29.41742584	     46.24827750	      0.00000000	      0.00000000	     32.81939344	    -20.38234939	    -10.50481678	     72.78177240	     48.43364094	      0.00000000	      0.00000000
      2.95228571	     -6.25666268	     -4.13241507	    -10.25673281	      0.93779608	      0.92739733	      0.52407295	     18.33075794	      4.58492651	     -9.32634869	     16.25534096	     16.25534096	      5.82104535	      3.93397117	     -5.15339902	      5.19489855	    -10.30241517	    -12.44858004	     34.80694461	     34.80694461	     13.39876788	    -16.00142750	     -2.19393187	     -9.29602601	      8.69786305	      1.31564030	     -7.42366844	    -14.12799067	    -19.47084266	     29.68805098	     46.24526145	      0.00000000	      0.00000000	     32.01359678	    -19.81967210	    -10.39147506	     72.27431793	     48.40585872	      0.00000000	      0.00000000
      2.97207143	     -6.18689328	     -4.18045536	     -9.78491073	      0.93842990	      0.92788876	      0.52796456	     17.67535663	      4.74997589	     -9.64975995	     16.11322348	     16.11322348	      6.31604109	      3.90894662	     -5.16278121	      6.86605157	    -10.92959486	    -11.13250870	     38.44800946	     38.44800946	     11.99537027	    -17.13793604	     -1.96401659	     -9.24458753	      8.59077473	      1.27878820	     -6.59063659	    -14.56972826	    -19.40996212	     30.00288562	     46.23817868	      0.00000000	      0.00000000	     31.08087638	    -19.23102262	    -10.43765495	     71.41389256	     48.37728602	      0.00000000	      0.00000000
      2.99185714	     -5.93004177	     -4.35183126	     -9.27668845	      0.93890974	      0.92839454	      0.53160481	     16.87303583	      5.00830366	     -9.95084426	     16.08525924	     16.08525924	      6.82588902	      3.72326283	     -5.22582703	      8.43167932	    -11.61369474	     -9.79503819	     42.13605160	     42.13605160	     10.67511254	    -17.95530762	     -1.61136413	     -9.47361333	      8.57286209	      1.36400322	     -5.70773038	    -15.01201739	    -19.38708905	     30.31768069	     46.23296622	      0.00000000	      0.00000000	     30.12907996	    -18.53259867	    -10.31662694	     70.72297767	     48.34495587	      0.00000000	      0.00000000
      3.01164286	     -5.84027234	     -4.36841605	     -8.71275592	      0.93898670	      0.92848564	      0.53480186	     16.44209090	      5.13899506	     -9.97081159	     16.29924877	     16.29924877	      7.49496979	      2.99961482	     -4.87011823	     10.61486099	    -11.86770522	     -7.90154378	     46.36212546	     46.36212546	     11.67676100	    -18.14576573	      4.83475309	     -9.37070841	      8.41172093	      1.25563403	     -4.73013644	    -15.46781769	    -18.86252320	     30.42372004	     46.21127266	      0.00000000	      0.00000000	     29.22714003	    -17.54279466	    -10.82659155	     68.62879023	     48.28869175	      0.00000000	      0.00000000
      3.03142857	     -5.56156949	     -4.56977679	     -8.11979063	      0.93914019	      0.92850452	      0.53790509	     15.80658469	      5.40736289	    -10.17775730	     16.57282568	     16.57282568	      8.08031076	      2.45631891	     -4.99367307	     12.30067235	    -12.35375373	     -6.42138764	     49.79799620	     49.79799620	     10.62093623	    -18.66026449	      5.32136690	     -9.57692699	      8.38895908	      1.21086309	     -3.73087557	    -15.83770183	    -18.86157375	     30.85957109	     46.20316371	      0.00000000	      0.00000000	     27.84954926	    -16.83844384	    -10.51315265	     67.65778072	     48.23404615	      0.00000000	      0.00000000
      3.05121429	     -5.12586794	     -4.78315261	     -7.45256026	      0.93922349	      0.92850475	      0.54065958	     15.11961510	      5.65260391	    -10.34076436	     17.04650714	     17.04650714	      8.75513546	      1.68994575	     -5.14378081	     13.80485433	    -12.72008848	     -4.95643394	     52.90862917	     52.90862917	      9.88393844	    -19.00443876	      5.99552858	     -9.93521859	      8.38238818	      1.14990859	     -2.52267401	    -16.15419498	    -18.84436192	     31.35899182	     46.19230124	      0.00000000	      0.00000000	     26.36553426	    -15.90927815	    -10.12889322	     66.48177229	     48.17188398	      0.00000000	      0.00000000
      3.07100000	     -5.02163567	     -4.77084083	     -6.83591689	      0.93873774	      0.92783733	      0.54319858	     15.07320258	      5.84204013	     -9.62545170	     17.86282119	     17.86282119	      9.45410346	     -0.57679681	     -4.45704396	     16.10848288	    -12.52314220	     -3.09936772	     56.44135155	     56.44135155	     12.16551719	    -19.04685083	     14.50106137	     -9.74552587	      8.14940263	      0.96803961	     -1.41103585	    -16.38967997	    -18.35541666	     31.67704698	     46.16191685	      0.00000000	      0.00000000	     25.68420366	    -15.19485739	     -9.71908342	     62.15414377	     48.03637549	      0.00000000	      0.00000000
      3.09078571	     -4.65521013	     -4.88571255	     -6.14647378	      0.93838702	      0.92710277	      0.54554766	     14.81194809	      5.99815965	     -9.55606201	     18.89174260	     18.89174260	     10.35010210	     -1.84528303	     -4.18540490	     17.80343718	    -12.55502388	     -1.72160595	     59.04505974	     59.04505974	     12.80930187	    -19.21930099	     17.30220706	     -9.95440947	      8.00366106	      0.85131837	     -0.26697234	    -16.56963643	    -18.12334602	     32.59300598	     46.12348390	      0.00000000	      0.00000000	     24.44631448	    -14.45451429	     -8.94153992	     59.27404220	     47.89541898	      0.00000000	      0.00000000
      3.11057143	     -4.23583874	     -5.01513406	     -5.43157112	      0.93797469	      0.92621235	      0.54774589	     14.53627558	      6.21797384	     -9.29939962	     19.95718030	     19.95718030	     11.17435104	     -3.51767397	     -3.89156199	     19.36011016	    -12.59948457	     -0.57410281	     61.10765676	     61.10765676	     13.42130729	    -19.35516277	     19.08154362	    -10.20237394	      7.84925800	      0.63185074	      1.09602763	    -16.64055173	    -17.88281412	     33.51299286	     46.08427768	      0.00000000	      0.00000000	     23.14970527	    -13.73462301	     -8.17050177	     56.04956573	     47.76073288	      0.00000000	      0.00000000
      3.13035714	     -3.84104654	     -5.13057935	     -4.69703873	      0.93741235	      0.92497441	      0.54978217	     14.38890474	      6.41123594	     -9.12504061	     21.18737872	     21.18737872	     12.09710060	     -5.09714452	     -3.41512497	     20.94328706	    -12.60961874	      0.41730481	     62.73923190	     62.73923190	     14.35170273	    -19.45377684	     20.96760911	    -10.40460721	      7.66887900	      0.64935203	      2.29903433	    -16.72965095	    -17.48667421	     34.63598980	     46.02741489	      0.00000000	      0.00000000	     22.15956746	    -12.82093970	     -7.09049988	     52.01607265	     47.59152343	      0.00000000	      0.00000000
      3.15014286	     -3.39982260	     -5.21571184	     -3.95778450	      0.93679144	      0.92355386	      0.55165379	     14.25427291	      6.57578536	     -8.94302370	     22.51358746	     22.51358746	     13.04600011	     -6.69602420	     -2.90871140	     22.39628848	    -12.60122469	      1.16649315	     63.80453328	     63.80453328	     15.28966860	    -19.52827736	     22.21917547	    -10.66797172	      7.44380825	      0.57738033	      3.64657948	    -16.72693910	    -17.06090412	     36.09891782	     45.95703507	      0.00000000	      0.00000000	     21.06386934	    -12.01935572	     -5.94320571	     47.85850095	     47.41574829	      0.00000000	      0.00000000
      3.16992857	     -2.99080866	     -5.23379736	     -3.19634721	      0.93606872	      0.92185013	      0.55332820	     14.20382434	      6.64151808	     -8.90463094	     23.89715968	     23.89715968	     13.85506687	     -8.16750088	     -2.93560162	     23.81234724	    -12.54673363	      1.68800495	     64.29908368	     64.29908368	     16.00263098	    -19.58123254	     22.50414261	    -10.91435555	      7.12261376	      0.00994364	      5.56321364	    -16.40227909	    -16.91799827	     37.51317420	     45.90569580	      0.00000000	      0.00000000	     19.09889489	    -11.51360010	     -5.31297280	     45.13556414	     47.30395365	      0.00000000	      0.00000000
      3.18971429	     -2.54882682	     -5.30503713	     -2.45814364	      0.93528722	      0.92018780	      0.55484321	     14.06006899	      6.81333512	     -8.76255640	     25.17977290	     25.17977290	     14.92191569	     -9.58020181	     -1.88919956	     25.13109232	    -12.52989453	      2.07458489	     64.29758076	     64.29758076	     17.07360390	    -19.61089001	     23.68831468	    -11.19380343	      6.88663091	      0.40604212	      6.69038571	    -16.56775915	    -15.93563423	     39.55422911	     45.78526451	      0.00000000	      0.00000000	     18.73011204	    -10.45013023	     -3.61374116	     39.21647219	     47.06103146	      0.00000000	      0.00000000
      3.20950000	     -2.14511892	     -5.31981860	     -1.70205529	      0.93440295	      0.91841100	      0.55612487	     13.94863808	      6.88240235	     -8.80864262	     26.42523022	     26.42523022	     15.88146236	    -10.73328432	     -1.24226709	     26.39406366	    -12.46846734	      2.26876069	     63.74795408	     63.74795408	     17.76003342	    -19.63071893	     23.98191575	    -11.48465788	      6.59235846	      0.35538375	      8.20660956	    -16.45826244	    -15.34319549	     41.99928527	     45.67788400	      0.00000000	      0.00000000	     17.35488871	     -9.72314404	     -2.31730149	     35.29580627	     46.85362975	      0.00000000	      0.00000000
      3.22928571	     -1.83565591	     -5.29322191	     -0.95414267	      0.93347557	      0.91666492	      0.55719063	     13.84306746	      6.90094013	     -8.92421963	     27.46956703	     27.46956703	     16.57610686	    -11.78065249	     -1.23191202	     27.61756862	    -12.32739274	      2.35545730	     62.66083234	     62.66083234	     18.23406027	    -19.64049436	     23.97881681	    -11.67449193	      6.25051730	     -0.09502725	     10.43255713	    -16.02133599	    -15.19604530	     43.87239689	     45.61406444	      0.00000000	      0.00000000	     15.12962595	     -9.25298762	     -1.77284258	     32.96632122	     46.73971188	      0.00000000	      0.00000000
      3.24907143	     -1.56943636	     -5.25881114	     -0.20318664	      0.93248110	      0.91511794	      0.55799301	     13.66801044	      6.90471132	     -9.10616132	     28.29038116	     28.29038116	     17.22162156	    -12.67774633	     -1.04709274	     28.75064904	    -12.12803466	      2.37567801	     61.10291491	     61.10291491	     18.52611827	    -19.64191039	     23.94146338	    -11.83856993	      5.92377510	     -0.40469577	     12.59896554	    -15.64326095	    -14.85287467	     46.00490595	     45.53180731	      0.00000000	      0.00000000	     13.04921772	     -8.70207558	     -1.11645766	     30.36385036	     46.60856175	      0.00000000	      0.00000000
